<svg width="180" height="34" viewBox="0 0 180 34" fill="none" xmlns="http://www.w3.org/2000/svg">
<path d="M42.078 27V25.852L44.822 25.348L44.85 16.024L44.822 7.778L42.078 7.302V6H50.142C52.0647 6 53.488 6.434 54.412 7.302C55.3453 8.16067 55.812 9.25267 55.812 10.578C55.812 11.8473 55.5087 12.9067 54.902 13.756C54.3047 14.596 53.4833 15.128 52.438 15.352V15.45C53.7167 15.702 54.804 16.276 55.7 17.172C56.6053 18.068 57.058 19.314 57.058 20.91C57.058 22.6647 56.4653 24.1207 55.28 25.278C54.104 26.426 52.466 27 50.366 27H42.078ZM47.342 25.404L47.916 25.684H49.638C51.2993 25.684 52.5173 25.2967 53.292 24.522C54.0667 23.7473 54.454 22.5247 54.454 20.854C54.454 19.426 54.1133 18.334 53.432 17.578C52.76 16.822 51.7893 16.444 50.52 16.444H47.328L47.314 16.64L47.342 25.404ZM47.314 14.834V15.142H49.526C50.7767 15.142 51.7147 14.792 52.34 14.092C52.9747 13.3827 53.292 12.3607 53.292 11.026C53.292 9.78467 52.9747 8.884 52.34 8.324C51.7053 7.764 50.7907 7.484 49.596 7.484H47.776L47.37 7.736L47.314 14.834ZM58.8045 14.708V13.63L62.3045 13.154H62.7945L63.1445 13.658L63.1165 20.378V23.038C63.1165 23.8313 63.3405 24.4707 63.7885 24.956C64.2365 25.4413 64.8805 25.684 65.7205 25.684C66.4205 25.684 67.1345 25.502 67.8625 25.138C68.5998 24.7647 69.1925 24.2047 69.6405 23.458L70.0465 24.172C69.6452 25.0587 68.9592 25.8007 67.9885 26.398C67.0272 26.986 66.0005 27.28 64.9085 27.28C63.5365 27.28 62.5005 26.9393 61.8005 26.258C61.1098 25.5767 60.7645 24.6247 60.7645 23.402C60.7645 22.6927 60.7738 22.0113 60.7925 21.358C60.8205 20.7047 60.8345 20.378 60.8345 20.378L60.7645 15.128L58.8045 14.708ZM67.7365 14.708V13.63L71.1105 13.154H71.6005L71.9505 13.658L71.9225 20.378L71.9505 25.152L73.9245 25.572V26.538L70.4105 27.014L69.9205 26.636L69.5705 24.998L69.5985 20.378L69.5705 15.128L67.7365 14.708ZM74.5729 14.204V13.168H80.3409V14.204L78.5629 14.722L80.2569 19.566L82.0349 24.186L83.7429 19.524L85.4509 14.624L83.4489 14.204V13.168H89.0909V14.204L86.9489 14.68L84.9469 19.986L81.1529 30.598C80.7609 31.7273 80.2102 32.5487 79.5009 33.062C78.7915 33.5847 78.0262 33.846 77.2049 33.846L75.0909 33.37V32.334H76.4349C77.0975 32.334 77.7882 32.1473 78.5069 31.774C79.2255 31.4007 79.7715 30.6633 80.1449 29.562L80.9149 27.266L78.3389 20.322L76.1549 14.694L74.5729 14.204ZM89.9569 27V25.852L92.7849 25.362L92.8129 16.444L92.7849 7.778L89.9569 7.302V6H95.6969L100.849 15.464L105.147 22.576V16.444L105.119 7.778L101.941 7.302V6H109.361V7.302L106.519 7.778L106.491 16.444L106.449 27H104.783L98.8469 16.598L94.1709 8.534L94.1429 16.486L94.1849 25.362L97.2649 25.852V27H89.9569ZM111.129 20.084C111.129 18.04 111.722 16.3273 112.907 14.946C114.092 13.5553 115.646 12.86 117.569 12.86C119.324 12.86 120.696 13.4013 121.685 14.484C122.684 15.5573 123.272 17.0413 123.449 18.936H121.167C121.064 17.4893 120.691 16.332 120.047 15.464C119.412 14.596 118.488 14.162 117.275 14.162C116.183 14.162 115.301 14.652 114.629 15.632C113.966 16.6027 113.64 17.984 113.649 19.776C113.649 21.8107 114.088 23.3133 114.965 24.284C115.842 25.2547 116.99 25.74 118.409 25.74C119.333 25.74 120.098 25.6233 120.705 25.39C121.321 25.1567 121.858 24.8393 122.315 24.438L122.917 25.11C122.506 25.726 121.909 26.2487 121.125 26.678C120.341 27.098 119.356 27.308 118.171 27.308C116.09 27.308 114.396 26.65 113.089 25.334C111.782 24.018 111.129 22.268 111.129 20.084ZM113.187 19.636V18.516H122.721L123.449 18.922L123.463 19.636H113.187ZM124.51 27V22.38H125.728L126.568 25.376L125.546 27H124.51ZM124.986 16.458C124.986 15.4407 125.341 14.5913 126.05 13.91C126.769 13.2193 127.838 12.874 129.256 12.874C130.246 12.874 131.03 13.0233 131.608 13.322C132.196 13.6207 132.672 13.9707 133.036 14.372L132.49 15.282C132.182 14.974 131.734 14.6847 131.146 14.414C130.558 14.134 129.942 13.994 129.298 13.994C128.496 13.994 127.898 14.1667 127.506 14.512C127.124 14.8573 126.932 15.3053 126.932 15.856C126.932 16.444 127.152 16.92 127.59 17.284C128.038 17.648 128.967 18.0447 130.376 18.474C131.758 18.9033 132.859 19.4447 133.68 20.098C134.511 20.7513 134.926 21.7407 134.926 23.066C134.926 24.2513 134.483 25.25 133.596 26.062C132.719 26.874 131.576 27.28 130.166 27.28C128.906 27.28 127.898 27.0373 127.142 26.552C126.386 26.0573 125.71 25.4273 125.112 24.662L126.162 23.948C126.368 24.4893 126.825 24.9793 127.534 25.418C128.244 25.8567 129.028 26.076 129.886 26.076C130.792 26.076 131.524 25.8567 132.084 25.418C132.644 24.97 132.924 24.3633 132.924 23.598C132.924 22.8047 132.616 22.2073 132 21.806C131.384 21.3953 130.344 20.9567 128.878 20.49C127.413 20.014 126.396 19.4773 125.826 18.88C125.266 18.2827 124.986 17.4753 124.986 16.458ZM131.846 14.75L132.714 13.168H133.764V17.312H132.546L131.846 14.75ZM135.765 14.736V13.854C136.829 13.5833 137.65 13.1073 138.229 12.426C138.807 11.7447 139.241 11.0587 139.531 10.368H140.105L140.525 11.712L140.301 19.79L140.413 24.9L141.085 25.67H142.989V26.594L139.811 27.112C139.092 27.112 138.583 26.9253 138.285 26.552C137.986 26.1787 137.837 25.586 137.837 24.774L137.935 19.79V14.918L135.765 14.736ZM139.755 14.736L139.811 13.56H143.283V14.736H139.755Z" fill="black"/>
<path d="M163.646 17.5L156.5 24.6465L149.354 17.5L156.5 10.3535L163.646 17.5Z" stroke="black" stroke-width="0.5"/>
<path d="M171.646 17.5L164.5 24.6465L157.354 17.5L164.5 10.3535L171.646 17.5Z" stroke="black" stroke-width="0.5"/>
<path d="M179.646 17.5L172.5 24.6465L165.354 17.5L172.5 10.3535L179.646 17.5Z" stroke="black" stroke-width="0.5"/>
<path d="M14.6465 17.5L7.5 24.6465L0.353516 17.5L7.5 10.3535L14.6465 17.5Z" stroke="black" stroke-width="0.5"/>
<path d="M22.6465 17.5L15.5 24.6465L8.35352 17.5L15.5 10.3535L22.6465 17.5Z" stroke="black" stroke-width="0.5"/>
<path d="M30.6465 17.5L23.5 24.6465L16.3535 17.5L23.5 10.3535L30.6465 17.5Z" stroke="black" stroke-width="0.5"/>
</svg>
